<mxfile host="drawio-plugin" modified="2023-09-11T15:36:33.206Z" agent="5.0 (Macintosh; Intel Mac OS X 10_15_7) AppleWebKit/537.36 (KHTML, like Gecko) Chrome/111.0.0.0 Safari/537.36" version="20.5.3" etag="5BrrycCz8_Vt9IBqS0dE" type="embed"><diagram id="gGi4H9r4V06tX_kbE4wG" name="Page-1"><mxGraphModel dx="894" dy="638" grid="1" gridSize="10" guides="1" tooltips="1" connect="1" arrows="1" fold="1" page="1" pageScale="1" pageWidth="850" pageHeight="1100" math="0" shadow="0"><root><mxCell id="0"/><mxCell id="1" parent="0"/><mxCell id="11" value="" style="edgeStyle=none;html=1;" parent="1" source="WrSqrYOQCW2Mg6NUQv-p-1" target="6" edge="1"><mxGeometry relative="1" as="geometry"/></mxCell><mxCell id="WrSqrYOQCW2Mg6NUQv-p-1" value="" style="shape=mxgraph.cisco.computers_and_peripherals.web_browser;html=1;pointerEvents=1;dashed=0;fillColor=#036897;strokeColor=#ffffff;strokeWidth=2;verticalLabelPosition=bottom;verticalAlign=top;align=center;outlineConnect=0;" parent="1" vertex="1"><mxGeometry x="40" y="122" width="62" height="64" as="geometry"/></mxCell><mxCell id="16" value="" style="edgeStyle=none;html=1;entryX=0;entryY=0.5;entryDx=0;entryDy=0;exitX=1;exitY=0.25;exitDx=0;exitDy=0;" parent="1" source="6" target="12" edge="1"><mxGeometry relative="1" as="geometry"><mxPoint x="500" y="160" as="targetPoint"/></mxGeometry></mxCell><mxCell id="22" style="edgeStyle=none;html=1;exitX=1;exitY=0.75;exitDx=0;exitDy=0;entryX=0;entryY=0.25;entryDx=0;entryDy=0;" parent="1" source="6" target="17" edge="1"><mxGeometry relative="1" as="geometry"/></mxCell><mxCell id="6" value="&lt;div style=&quot;text-align: left;&quot;&gt;&lt;span style=&quot;background-color: initial;&quot;&gt;JSON Web API&lt;/span&gt;&lt;/div&gt;&lt;div style=&quot;text-align: left;&quot;&gt;&lt;br&gt;&lt;/div&gt;&lt;div style=&quot;text-align: left;&quot;&gt;&lt;span style=&quot;background-color: initial;&quot;&gt;POST /v1/file&lt;/span&gt;&lt;/div&gt;&lt;div style=&quot;text-align: left;&quot;&gt;&lt;span style=&quot;background-color: initial;&quot;&gt;sends file in body&lt;/span&gt;&lt;/div&gt;&lt;div style=&quot;text-align: left;&quot;&gt;&lt;span style=&quot;background-color: initial;&quot;&gt;response:&lt;/span&gt;&lt;/div&gt;&lt;div style=&quot;text-align: left;&quot;&gt;&lt;span style=&quot;background-color: initial;&quot;&gt;{&lt;/span&gt;&lt;/div&gt;&lt;div style=&quot;text-align: left;&quot;&gt;&lt;span style=&quot;background-color: initial;&quot;&gt;&amp;nbsp; fileId: &quot;xyz&quot;&lt;/span&gt;&lt;/div&gt;&lt;div style=&quot;text-align: left;&quot;&gt;&lt;span style=&quot;background-color: initial;&quot;&gt;}&lt;/span&gt;&lt;/div&gt;&lt;div style=&quot;text-align: left;&quot;&gt;&lt;br&gt;&lt;/div&gt;&lt;div style=&quot;text-align: left;&quot;&gt;&lt;span style=&quot;background-color: initial;&quot;&gt;GET /v1/file/id&lt;/span&gt;&lt;/div&gt;&lt;div style=&quot;text-align: left;&quot;&gt;&lt;span style=&quot;background-color: initial;&quot;&gt;response is binary content of file&lt;/span&gt;&lt;/div&gt;" style="rounded=0;whiteSpace=wrap;html=1;" parent="1" vertex="1"><mxGeometry x="160" y="40" width="200" height="240" as="geometry"/></mxCell><mxCell id="8" style="edgeStyle=none;html=1;exitX=0.95;exitY=0.91;exitDx=0;exitDy=0;exitPerimeter=0;entryX=0.806;entryY=0.912;entryDx=0;entryDy=0;entryPerimeter=0;" parent="1" source="WrSqrYOQCW2Mg6NUQv-p-1" target="WrSqrYOQCW2Mg6NUQv-p-1" edge="1"><mxGeometry relative="1" as="geometry"/></mxCell><mxCell id="14" value="" style="edgeStyle=none;html=1;" parent="1" source="12" target="13" edge="1"><mxGeometry relative="1" as="geometry"/></mxCell><mxCell id="12" value="Metadata Service&lt;br&gt;gRPC interface&lt;br&gt;&lt;br&gt;save (fileId, blockId[])&lt;br&gt;get (fileId) returns blockId[]" style="rounded=0;whiteSpace=wrap;html=1;" parent="1" vertex="1"><mxGeometry x="440" y="40" width="170" height="100" as="geometry"/></mxCell><mxCell id="13" value="" style="sketch=0;aspect=fixed;html=1;points=[];align=center;image;fontSize=12;image=img/lib/mscae/SQL_Database_generic.svg;" parent="1" vertex="1"><mxGeometry x="690" y="65" width="38" height="50" as="geometry"/></mxCell><mxCell id="20" style="edgeStyle=none;html=1;exitX=1;exitY=0.25;exitDx=0;exitDy=0;entryX=-0.08;entryY=0.56;entryDx=0;entryDy=0;entryPerimeter=0;" parent="1" source="17" target="24" edge="1"><mxGeometry relative="1" as="geometry"/></mxCell><mxCell id="21" style="edgeStyle=none;html=1;exitX=1;exitY=0.75;exitDx=0;exitDy=0;entryX=0;entryY=0.5;entryDx=0;entryDy=0;entryPerimeter=0;" parent="1" source="17" target="23" edge="1"><mxGeometry relative="1" as="geometry"/></mxCell><mxCell id="17" value="Block Storge Service&lt;br&gt;gRPC interface&lt;br&gt;&lt;br&gt;save (bytes) return blockId&lt;br&gt;&lt;br&gt;read(repeaded blockId) return (stream bytes)" style="rounded=0;whiteSpace=wrap;html=1;" parent="1" vertex="1"><mxGeometry x="440" y="180" width="250" height="180" as="geometry"/></mxCell><mxCell id="23" value="" style="sketch=0;points=[[0,0,0],[0.25,0,0],[0.5,0,0],[0.75,0,0],[1,0,0],[0,1,0],[0.25,1,0],[0.5,1,0],[0.75,1,0],[1,1,0],[0,0.25,0],[0,0.5,0],[0,0.75,0],[1,0.25,0],[1,0.5,0],[1,0.75,0]];outlineConnect=0;fontColor=#232F3E;gradientColor=#4D72F3;gradientDirection=north;fillColor=#3334B9;strokeColor=#ffffff;dashed=0;verticalLabelPosition=bottom;verticalAlign=top;align=center;html=1;fontSize=12;fontStyle=0;aspect=fixed;shape=mxgraph.aws4.resourceIcon;resIcon=mxgraph.aws4.managed_apache_cassandra_service;" vertex="1" parent="1"><mxGeometry x="740" y="280" width="78" height="78" as="geometry"/></mxCell><mxCell id="24" value="" style="sketch=0;aspect=fixed;html=1;points=[];align=center;image;fontSize=12;image=img/lib/mscae/Cache_Redis_Product.svg;" vertex="1" parent="1"><mxGeometry x="754" y="200" width="50" height="42" as="geometry"/></mxCell></root></mxGraphModel></diagram></mxfile>